<svg width="20" height="19" viewBox="0 0 20 19" fill="none" xmlns="http://www.w3.org/2000/svg">
<path d="M19.6 13.8V1.80001C19.6 1.14001 19.06 0.600006 18.4 0.600006H1.60002C0.940024 0.600006 0.400024 1.14001 0.400024 1.80001V13.8C0.400024 14.46 0.940024 15 1.60002 15H18.4C19.06 15 19.6 14.46 19.6 13.8ZM10 4.20001C12.76 4.20001 15.28 5.56801 17.2 7.80001C15.28 10.032 12.76 11.4 10 11.4C7.24002 11.4 4.72002 10.032 2.80002 7.80001C4.72002 5.56801 7.24002 4.20001 10 4.20001ZM12.4 7.80001C12.4 6.48001 11.32 5.40001 10 5.40001C8.68003 5.40001 7.60002 6.48001 7.60002 7.80001C7.60002 9.12001 8.68003 10.2 10 10.2C11.32 10.2 12.4 9.12001 12.4 7.80001ZM14.8 17.4H18.4V18.6H1.60002V17.4H5.20002V16.2H14.8V17.4Z" fill="white"/>
</svg>
