<svg width="27" height="22" viewBox="0 0 27 22" fill="none" xmlns="http://www.w3.org/2000/svg">
<path d="M22.8333 0.333496H4.16667C3.10581 0.333496 2.08839 0.754924 1.33824 1.50507C0.588099 2.25521 0.166672 3.27263 0.166672 4.3335V17.6668C0.166672 18.7277 0.588099 19.7451 1.33824 20.4953C2.08839 21.2454 3.10581 21.6668 4.16667 21.6668H22.8333C23.8942 21.6668 24.9116 21.2454 25.6618 20.4953C26.4119 19.7451 26.8333 18.7277 26.8333 17.6668V4.3335C26.8333 3.27263 26.4119 2.25521 25.6618 1.50507C24.9116 0.754924 23.8942 0.333496 22.8333 0.333496ZM22.8333 3.00016L14.1667 8.96016C13.964 9.07719 13.7341 9.1388 13.5 9.1388C13.266 9.1388 13.036 9.07719 12.8333 8.96016L4.16667 3.00016H22.8333Z" fill="white"/>
</svg>
